<?xml version="1.0" encoding="iso-8859-1"?>
<!-- Generator: Adobe Illustrator 30.3.0, SVG Export Plug-In . SVG Version: 9.03 Build 0)  -->
<svg version="1.1" id="Ebene_2_00000036238793218881562270000005536838305858809503_"
	 xmlns="http://www.w3.org/2000/svg" xmlns:xlink="http://www.w3.org/1999/xlink" x="0px" y="0px" width="470.4px" height="317.6px"
	 viewBox="0 0 470.4 317.6" enable-background="new 0 0 470.4 317.6" xml:space="preserve">
<g id="Ebene_1-2">
	<g>
		<path fill="#1D1D1B" d="M161.5,0L161.5,0c1.8,10.1,5.1,19.6,9.8,28.3c4.9,9.1,11.2,17.3,18.7,24.4c3.4,3.2,7.1,6.2,10.9,8.9
			c5.2,3.6,10.7,6.7,16.6,9.3c-6.4-0.7-12.7-0.8-19-0.3c-4.7,0.4-9.3,1.1-13.9,2.2c-10,2.4-19.6,6.3-28.4,11.8
			c-8.4,5.2-16.1,11.8-22.7,19.6l0,0c9.4,4.1,19.2,6.5,29.1,7.4c10.3,0.9,20.7,0.2,30.6-2.2c4.6-1.1,9.1-2.5,13.4-4.2
			c12-4.8,23.1-12,32.5-21.6c1.8-1.8,3.5-3.6,5.1-5.6l0,0c-0.4-2.5-1-5-1.6-7.4c-3.4-13-9.4-24.8-17.4-35c-2.9-3.7-6.1-7.2-9.5-10.4
			c-7.5-7-16.1-12.9-25.4-17.2C181.4,4,171.6,1.2,161.5,0z M233.4,80.6L233.4,80.6L233.4,80.6c-7.5,9.1-17.5,15.1-28.4,17.7
			c-4.6,1.1-9.4,1.5-14.1,1.3c-6.5-0.2-13-1.7-19.2-4.5l0,0c4.3-5.2,9.4-9.5,15.2-12.6c4.1-2.3,8.6-4,13.2-5.1
			c10.8-2.6,22.5-1.7,33.3,3.1l0,0V80.6z M208.9,32.6c4.2,2.2,8.1,5,11.5,8.2c8.1,7.7,13.8,17.9,15.7,29.5l0,0l0,0l0,0
			c-11.8-1.2-22.3-6.3-30.4-13.9c-3.4-3.2-6.4-7-8.9-11c-3.4-5.6-5.8-11.8-6.8-18.5l0,0C196.7,27.6,203.1,29.6,208.9,32.6
			C208.9,32.6,208.9,32.6,208.9,32.6z"/>
		<path fill="#1D1D1B" d="M223.6,194.3L223.6,194.3c7.8-6.6,14.4-14.2,19.6-22.7c5.4-8.8,9.4-18.4,11.8-28.4
			c1.1-4.6,1.8-9.2,2.2-13.9c0.5-6.3,0.5-12.7-0.3-19c2.5,5.9,5.6,11.4,9.3,16.6c2.7,3.9,5.7,7.5,8.9,10.9
			c7,7.5,15.3,13.8,24.4,18.7c8.8,4.7,18.3,8.1,28.3,9.9l0,0c-1.2-10.2-4-19.9-8.1-28.9c-4.3-9.4-10.2-18-17.2-25.5
			c-3.2-3.4-6.7-6.6-10.4-9.5c-10.1-8-22-14-34.9-17.4c-2.4-0.6-4.9-1.2-7.4-1.6l0,0c-1.9,1.6-3.8,3.3-5.6,5.1
			c-9.6,9.4-16.8,20.5-21.6,32.5c-1.7,4.4-3.2,8.9-4.2,13.4c-2.4,10-3.1,20.4-2.2,30.6c0.9,9.9,3.3,19.7,7.4,29.1l0,0L223.6,194.3z
			 M257.5,91.7L257.5,91.7L257.5,91.7c11.6,1.9,21.9,7.6,29.5,15.8c3.2,3.4,6,7.3,8.2,11.5c3,5.8,5,12.2,5.7,18.9l0,0
			c-6.7-1.1-12.9-3.4-18.5-6.8c-4.1-2.4-7.8-5.4-11-8.9c-7.6-8.1-12.7-18.6-13.9-30.4l0,0l0,0L257.5,91.7z M228.2,136.9
			c-0.2-4.8,0.3-9.5,1.4-14.1c2.6-10.8,8.6-20.9,17.7-28.4l0,0l0,0l0,0c4.8,10.8,5.7,22.5,3.1,33.3c-1.1,4.6-2.8,9.1-5.1,13.2
			c-3.1,5.7-7.4,10.9-12.6,15.2l0,0C229.9,149.9,228.5,143.4,228.2,136.9L228.2,136.9L228.2,136.9z"/>
	</g>
	<g>
		<path fill="#1D1D1B" d="M46.8,256.8v38.5h-8.2v-10.5c-3.9,7.1-11.4,11.7-20.6,11.7s-18-5.4-18-16.1s8-15,16.9-16.3l13.7-1.9
			c3.2-0.4,7.2-1.2,7.2-6.7s-4.4-8.9-12.3-8.9s-13.7,3.3-15.2,9.8h-9c2.1-11.5,11.5-17.3,24.6-17.3s20.9,5.7,20.9,17.8l0,0V256.8z
			 M37.8,271.5v-4.6c-2,1-4.4,1.6-9.4,2.4l-8.2,1.1c-4.4,0.7-11.1,2.1-11.1,9.4s4.8,8.8,10.9,8.8c9.2,0,17.9-6.4,17.9-17.1l0,0
			L37.8,271.5z"/>
		<path fill="#1D1D1B" d="M51.5,240.2h8.8v10.4c3.4-6.9,9.8-11.5,19.6-11.5s18.7,7,18.7,19v37.3h-9v-35.9c0-8.3-5.3-12.4-12.3-12.4
			s-16.9,6.9-16.9,18.8v29.5h-9v-55.1l0,0L51.5,240.2z"/>
		<path fill="#1D1D1B" d="M152.5,240.2V293c0,16.4-11.3,24.6-25.5,24.6s-23.9-7-25.3-19.2h9c1.3,6.6,6.7,11.6,16.5,11.6
			s16.6-4.8,16.6-16.1v-11.3c-3.8,7.7-11.9,10.9-19.3,10.9c-13.3,0-24.5-9.1-24.5-27s12.2-27.4,25.4-27.4s15.7,4.8,18.3,9.6v-8.6
			h8.8V240.2z M143.4,266.6c0-13.2-8.2-19.4-16.8-19.4s-17.4,6-17.4,19.3s8.3,19,17.1,19S143.4,280.2,143.4,266.6z"/>
		<path fill="#1D1D1B" d="M204.6,270.3h-41.4c0.7,12.5,7.7,18.2,17.2,18.2s12.3-2.9,14.5-9.3h8.8c-2.6,12.2-12.9,17.3-23.6,17.3
			s-25.9-9.1-25.9-28.3s10.3-29.2,26.1-29.2s24.3,7.4,24.3,25.9L204.6,270.3L204.6,270.3z M195.7,263c-0.1-9.3-4.4-15.9-15.2-15.9
			s-15.7,6.6-17.1,15.9H195.7z"/>
		<path fill="#1D1D1B" d="M215.8,217.4v77.9h-9v-77.9H215.8z"/>
		<path fill="#1D1D1B" d="M252.7,255.9c-1-6.4-6.4-9.2-13.8-9.2s-11.6,3.4-11.6,8.4c0,5,6.2,7.6,14.5,8.9c11.2,2,21.4,3.8,21.4,15.5
			s-10.1,17.1-21.5,17.1s-23.4-5.8-24.6-18.1h9.4c1.4,7.6,8,10.5,15.4,10.5s12.4-2.6,12.4-8.4s-6-7.1-14-8.5
			c-11.9-2.2-21.8-4.3-21.8-15.9s9.5-17,21.3-17s21,5.9,22.1,16.8h-9.1L252.7,255.9z"/>
	</g>
	<g>
		<path fill="#1D1D1B" d="M277.4,217.4v77.9h-13.6v-77.9H277.4z"/>
		<path fill="#1D1D1B" d="M333.6,267.1c0,18.3-11.6,29.4-28.2,29.4s-28.3-11.1-28.3-29.3s11.7-29.4,28.3-29.4
			S333.6,248.9,333.6,267.1z M291.1,267.3c0,11,6.2,16.3,14.4,16.3s14.4-5.3,14.4-16.4s-6.4-16.3-14.5-16.3s-14.2,5.3-14.2,16.4l0,0
			H291.1z"/>
		<path fill="#1D1D1B" d="M370.2,238.9h14l-23.1,56.4h-13.5l-23.1-56.4H339l15.7,42l15.6-42l0,0H370.2z"/>
		<path fill="#1D1D1B" d="M428.5,271.8h-39.9c1.2,8.8,6.2,13,14.4,13s9.9-2.2,11.5-6.8h13.4c-2.4,12.6-13.4,18.5-25.3,18.5
			s-27.4-9.8-27.4-28.7s10-29.9,27.6-29.9s25.8,8.1,25.8,26.8v7.1l0,0H428.5z M415.5,261.2c-0.2-6.9-4-11.6-12.4-11.6
			s-12.5,4.6-14,11.6H415.5z"/>
	</g>
	<path fill="#1D1D1B" d="M470.4,250.8c0,12.2-9,20.8-20.7,20.8s-20.8-8.7-20.8-20.8s9.1-21,20.8-21S470.4,238.5,470.4,250.8z
		 M466.6,250.8c0-10.4-7.5-17.4-17-17.4s-17.1,7-17.1,17.4c0,10.4,7.6,17.3,17.1,17.3S466.6,261.2,466.6,250.8z"/>
	<path fill="#1D1D1B" d="M457.2,252.9c-0.2,4.2-3.5,6.5-7.4,6.5s-8-4.2-8-8.8s3.5-8.9,8.3-8.9s6.8,2.2,7.1,5.8h-2.7
		c-0.2-2-2-3.4-4.5-3.4s-5.5,2.4-5.5,6.3s1.7,6.4,5.4,6.4s4.5-1.4,4.7-4h2.7L457.2,252.9z"/>
</g>
</svg>
