<?xml version="1.0" encoding="UTF-8"?>
<svg id="b" data-name="Ebene 2" xmlns="http://www.w3.org/2000/svg" width="152.586" height="152.614" viewBox="0 0 152.586 152.614">
  <g id="c" data-name="Ebene 1">
    <g>
      <path d="M21.967.004l-.017-.004c1.397,7.893,4.03,15.389,7.723,22.252,3.821,7.147,8.794,13.615,14.657,19.156,2.677,2.525,5.541,4.85,8.577,6.964,4.062,2.834,8.422,5.285,13.033,7.27-4.987-.582-9.988-.643-14.924-.223-3.687.31-7.332.898-10.911,1.735-7.849,1.862-15.392,4.972-22.278,9.246-6.635,4.101-12.666,9.271-17.827,15.405l.019-.004c7.366,3.187,15.06,5.118,22.809,5.818,8.086.737,16.223.153,24.07-1.7,3.587-.835,7.106-1.946,10.534-3.313,9.42-3.736,18.16-9.417,25.549-16.927,1.389-1.398,2.715-2.857,3.996-4.382h0c-.337-1.959-.769-3.899-1.264-5.802-2.645-10.203-7.361-19.486-13.643-27.444-2.291-2.901-4.781-5.625-7.46-8.141-5.865-5.533-12.617-10.112-19.986-13.522C37.566,3.114,29.93.931,21.967.004ZM78.448,63.304l.021-.012-.015.023c-5.874,7.17-13.776,11.883-22.297,13.894-3.619.853-7.344,1.206-11.077,1.058-5.116-.198-10.241-1.36-15.077-3.529l-.008-.002c3.364-4.115,7.424-7.439,11.929-9.905,3.26-1.803,6.76-3.142,10.379-3.995,8.502-2.007,17.664-1.337,26.129,2.464l.006.011.011-.006ZM59.207,25.621c3.305,1.741,6.351,3.92,9.059,6.461,6.369,6.006,10.848,14.051,12.347,23.19l.002.027-.018-.032-.011.006c-9.231-.946-17.498-4.953-23.853-10.947-2.706-2.55-5.065-5.461-6.985-8.654-2.668-4.382-4.516-9.299-5.37-14.538l.011-.006c5.273.543,10.291,2.103,14.819,4.492Z"/>
      <path d="M70.762,152.598l.004.017c6.137-5.156,11.312-11.184,15.409-17.814,4.279-6.883,7.394-14.424,9.261-22.271.848-3.581,1.43-7.223,1.742-10.91.423-4.935.366-9.937-.221-14.921,1.99,4.609,4.438,8.972,7.269,13.036,2.112,3.038,4.443,5.901,6.958,8.582,5.537,5.866,12.002,10.844,19.146,14.67,6.869,3.695,14.362,6.334,22.254,7.736l-.013-.014c-.923-7.973-3.098-15.602-6.366-22.662-3.404-7.371-7.979-14.127-13.508-19.995-2.517-2.689-5.238-5.181-8.136-7.466-7.946-6.289-17.235-11.018-27.434-13.662-1.905-.504-3.832-.923-5.793-1.27h0c-1.528,1.272-2.992,2.615-4.393,3.995-7.514,7.392-13.194,16.118-16.945,25.537-1.367,3.435-2.481,6.953-3.32,10.531-1.859,7.845-2.449,15.983-1.717,24.069.695,7.749,2.623,15.453,5.802,22.813ZM97.34,72.034l-.021-.012.027.002c9.147,1.502,17.179,5.989,23.181,12.363,2.548,2.708,4.716,5.757,6.455,9.063,2.386,4.53,3.943,9.549,4.482,14.822l.002.008c-5.246-.856-10.154-2.709-14.543-5.378-3.192-1.921-6.101-4.283-8.649-6.991-5.989-6.359-9.99-14.629-10.93-23.861l.006-.011-.011-.006ZM74.326,107.539c-.145-3.733.219-7.46,1.066-11.076,2.017-8.519,6.744-16.42,13.91-22.287l.023-.015-.018.032.011.006c3.796,8.467,4.459,17.63,2.446,26.131-.856,3.618-2.197,7.117-4.002,10.376-2.461,4.501-5.796,8.561-9.905,11.92l-.011-.006c-2.166-4.838-3.324-9.963-3.519-15.08Z"/>
    </g>
  </g>
</svg>